<?xml version="1.0" standalone="no"?>
<!DOCTYPE svg PUBLIC "-//W3C//DTD SVG 20010904//EN"
 "http://www.w3.org/TR/2001/REC-SVG-20010904/DTD/svg10.dtd">
<svg version="1.0" xmlns="http://www.w3.org/2000/svg"
 width="464.000000pt" height="464.000000pt" viewBox="0 0 464.000000 464.000000"
 preserveAspectRatio="xMidYMid meet">
<metadata>
Created by potrace 1.14, written by Peter Selinger 2001-2017
</metadata>
<g transform="translate(0.000000,464.000000) scale(0.100000,-0.100000)"
fill="#000000" stroke="none">
<path d="M0 4191 c0 -420 1 -450 18 -454 16 -4 16 -5 0 -6 -17 -1 -18 -76 -18
-1418 l0 -1418 47 0 c46 0 48 -1 51 -30 1 -16 10 -60 19 -97 14 -56 14 -74 4
-107 -7 -24 -18 -41 -26 -41 -8 0 -15 5 -15 10 0 6 -7 10 -16 10 -8 0 -13 -4
-10 -9 3 -5 -1 -11 -9 -15 -15 -6 -31 9 -17 18 10 6 8 44 -2 69 -17 36 -26 14
-26 -60 1 -67 3 -76 14 -60 7 9 20 17 28 17 23 0 59 -36 61 -59 1 -18 6 -20
32 -15 32 6 63 -15 51 -34 -3 -5 3 -17 14 -27 11 -10 20 -13 20 -7 0 5 9 8 21
5 12 -3 24 0 29 6 5 9 18 2 44 -25 25 -25 40 -34 44 -27 4 7 13 9 20 4 23 -14
62 -75 62 -97 0 -28 16 -39 35 -24 8 7 15 7 19 1 4 -6 14 -7 23 -4 12 5 15 2
10 -10 -3 -8 0 -20 7 -26 8 -7 16 -24 19 -40 5 -23 13 -30 42 -35 19 -4 33
-11 30 -17 -7 -10 59 -79 76 -79 5 0 8 -4 4 -9 -3 -5 4 -12 15 -16 11 -3 20
-12 20 -20 0 -7 11 -20 25 -29 22 -15 194 -16 1950 -16 l1926 0 -2 65 c-2 63
-3 65 -28 66 l-26 1 27 10 28 10 0 103 0 104 -57 -4 c-128 -11 -133 -9 -110
42 6 13 16 23 23 23 7 0 21 3 31 6 15 5 15 4 3 -5 -13 -9 -13 -12 0 -25 13
-14 19 -13 47 5 28 18 31 23 21 39 -9 14 -9 22 2 35 7 9 19 14 25 11 10 -3 13
35 14 161 l1 166 -20 -18 c-18 -16 -23 -17 -30 -5 -17 27 -11 40 20 40 l30 0
0 90 c0 73 -3 90 -15 90 -19 0 -19 19 0 26 13 5 15 69 15 484 l0 479 -32 3
c-61 6 -83 83 -49 173 15 40 25 52 50 59 l31 9 0 148 c0 82 -3 149 -7 149 -3
0 -14 -7 -24 -16 -13 -12 -28 -15 -52 -10 -46 9 -75 68 -61 124 5 22 15 37 24
37 8 0 16 10 18 23 2 15 -2 22 -13 22 -12 0 -15 6 -10 23 10 30 18 38 48 41
22 3 27 -2 36 -38 8 -33 7 -42 -4 -49 -24 -13 -17 -24 15 -29 l30 -5 0 811 0
810 -29 -40 c-16 -21 -39 -67 -51 -101 -15 -43 -29 -65 -44 -70 -22 -7 -28 -8
-92 -18 -29 -4 -51 -16 -75 -41 -40 -42 -98 -74 -133 -74 -31 0 -54 32 -68 92
-5 23 -12 45 -16 48 -4 3 -13 18 -21 35 -12 28 -11 31 22 61 19 18 37 42 40
55 3 13 27 52 53 87 30 40 48 76 51 101 5 36 3 41 -25 55 -42 21 -44 21 -126
-18 -74 -36 -116 -68 -116 -89 0 -14 -28 -40 -73 -68 -41 -24 -46 -24 -81 6
-16 14 -34 25 -39 25 -5 0 2 11 17 25 14 13 26 28 26 34 0 5 14 14 32 20 50
17 163 147 182 209 l7 22 -613 0 -614 -1 -11 -28 c-14 -37 -51 -59 -59 -36 -4
9 1 24 10 34 9 10 16 21 16 24 0 4 -492 7 -1092 7 l-1093 0 -43 -22 -44 -23
-15 23 c-14 20 -23 22 -106 22 -76 0 -94 -3 -111 -19 -12 -11 -51 -36 -88 -55
-36 -19 -64 -37 -62 -40 2 -3 1 -4 -3 -1 -3 3 -14 -2 -24 -11 -21 -19 -67 -12
-76 12 -3 9 8 35 26 60 17 25 31 47 31 49 0 3 -25 5 -55 5 l-55 0 0 -449z
m2800 344 c0 -9 -6 -12 -15 -9 -8 4 -15 10 -15 15 0 5 7 9 15 9 8 0 15 -7 15
-15z m-2235 -4 c3 -5 1 -12 -5 -16 -5 -3 -10 1 -10 9 0 18 6 21 15 7z m-1
-386 c-4 -8 -1 -15 5 -15 16 0 14 -17 -5 -38 -18 -21 -64 -18 -64 3 0 22 12
45 20 40 4 -3 13 2 20 10 16 19 31 19 24 0z m416 -11 c6 -14 10 -35 10 -46 0
-18 -4 -20 -32 -14 -33 6 -47 22 -60 64 -6 20 -3 22 33 22 33 0 41 -4 49 -26z
m1185 -75 c11 -17 -1 -21 -15 -4 -8 9 -8 15 -2 15 6 0 14 -5 17 -11z m-182
-26 c4 -3 2 -12 -4 -19 -7 -8 -7 -14 1 -19 5 -3 10 -12 10 -18 -1 -7 -9 -2
-20 11 -24 29 -12 70 13 45z m-373 -68 c16 -19 6 -45 -18 -45 -28 0 -56 25
-49 44 8 20 50 21 67 1z m830 -99 c0 -2 -11 -6 -25 -8 -14 -3 -25 -1 -25 3 0
5 11 9 25 9 14 0 25 -2 25 -4z m105 -26 c-3 -5 -16 -10 -28 -10 -18 0 -19 2
-7 10 20 13 43 13 35 0z m-815 -35 c18 -10 20 -14 8 -15 -23 0 -48 11 -48 21
0 12 11 11 40 -6z m185 -13 c-3 -3 -11 0 -18 7 -9 10 -8 11 6 5 10 -3 15 -9
12 -12z m170 -24 c139 10 136 10 116 -5 -13 -9 -33 -11 -58 -7 -29 4 -42 2
-53 -11 -10 -12 -15 -13 -21 -3 -4 7 -11 9 -15 5 -4 -3 -2 -13 5 -21 9 -11 8
-15 -4 -19 -8 -4 -12 -13 -9 -22 4 -11 0 -15 -16 -15 -11 0 -18 -4 -15 -10 9
-14 -8 -13 -23 2 -6 6 -15 8 -19 4 -4 -4 -1 -11 7 -16 9 -5 -2 -6 -29 -3 -26
4 -51 1 -67 -7 -13 -7 -27 -10 -30 -7 -4 4 6 12 22 18 l29 12 -35 6 c-30 5
-32 7 -15 14 11 5 47 11 79 13 33 3 63 7 68 10 14 9 9 34 -7 34 -9 0 -26 9
-38 21 l-22 21 65 -8 c36 -4 74 -7 85 -6z m-1731 -37 c3 -4 0 -33 -6 -64 -10
-46 -15 -55 -32 -54 -52 2 -74 62 -36 102 20 21 65 31 74 16z m1891 -1 c19 -8
19 -9 1 -9 -20 -1 -20 -1 0 -16 13 -10 15 -14 5 -15 -16 0 -51 28 -51 42 0 10
19 9 45 -2z m-255 -10 c13 -8 13 -10 -2 -10 -9 0 -20 5 -23 10 -8 13 5 13 25
0z m153 3 c-7 -2 -19 -2 -25 0 -7 3 -2 5 12 5 14 0 19 -2 13 -5z m-278 -13 c3
-6 -1 -7 -9 -4 -18 7 -21 14 -7 14 6 0 13 -4 16 -10z m633 -40 c2 -5 12 -10
23 -10 10 0 19 -4 19 -10 0 -14 -21 -12 -39 4 -9 8 -32 19 -51 25 l-35 11 40
-5 c22 -2 41 -9 43 -15z m202 -27 c-11 -15 -30 -33 -41 -41 -20 -14 -20 -13
-10 7 13 24 12 25 -26 11 -26 -9 -27 -9 -9 5 11 8 27 15 35 15 9 1 27 7 41 15
34 19 34 19 10 -12z m-204 -33 c5 -5 26 -10 47 -12 44 -3 49 -16 7 -24 -43 -9
-26 -24 26 -24 32 0 43 -3 38 -12 -5 -8 -2 -9 9 -5 9 3 19 2 22 -3 4 -6 1 -10
-5 -10 -7 0 -10 -7 -6 -15 9 -25 -5 -45 -31 -45 -13 0 -22 -4 -18 -9 3 -5 -1
-11 -9 -13 -10 -2 -8 -8 9 -20 23 -17 25 -17 53 7 17 14 45 32 64 39 33 15 68
48 68 66 0 15 40 32 58 24 9 -3 30 -8 46 -10 17 -3 41 -14 53 -26 l24 -22 -21
-16 c-25 -18 -14 -33 30 -43 33 -8 76 -65 61 -80 -17 -17 -13 -31 4 -17 23 19
55 -17 44 -49 -8 -19 -4 -24 26 -37 48 -20 52 -18 25 11 -17 18 -21 28 -13 36
8 8 20 0 42 -31 17 -24 31 -37 31 -30 0 7 -7 22 -17 32 -9 10 -14 21 -10 24 6
6 87 -93 87 -107 0 -5 -12 -1 -27 10 -26 18 -50 25 -81 22 -10 -1 -10 -6 2
-22 8 -12 12 -28 9 -36 -4 -9 2 -16 16 -20 11 -3 21 -10 21 -15 0 -5 5 -6 10
-3 6 3 10 1 10 -6 0 -6 8 -9 19 -6 14 3 24 -6 40 -34 24 -43 36 -51 28 -18 -3
12 -1 19 6 16 6 -2 14 -14 17 -27 3 -13 11 -25 18 -28 15 -5 16 10 0 26 -9 9
-8 12 5 12 15 0 44 -38 38 -50 -2 -3 -7 -13 -13 -23 -5 -10 -16 -16 -23 -13
-18 6 -68 -18 -57 -28 3 -4 7 -15 7 -24 0 -9 6 -16 13 -15 7 2 12 -7 12 -20 0
-29 15 -51 29 -43 16 10 11 77 -7 99 -8 9 -12 20 -9 24 4 3 7 2 7 -4 0 -6 9
-9 20 -6 14 4 20 0 20 -11 0 -9 7 -16 15 -16 18 0 56 -82 57 -123 1 -15 5 -30
10 -33 4 -3 8 -13 8 -23 0 -10 6 -24 14 -30 16 -13 28 -51 17 -51 -4 0 -13 11
-19 24 -8 18 -16 22 -36 19 -31 -6 -35 -33 -5 -33 14 0 19 -5 16 -15 -4 -8 -2
-17 4 -21 6 -3 3 -11 -7 -19 -20 -14 -13 -45 11 -45 10 0 15 -10 15 -27 0 -16
5 -35 10 -43 8 -13 10 -13 10 2 0 20 85 104 122 119 66 27 118 -26 118 -121 0
-30 5 -71 10 -90 14 -49 15 -225 1 -284 -6 -27 -30 -86 -52 -131 -43 -89 -79
-125 -105 -104 -11 9 -14 8 -14 -4 0 -21 -17 -30 -65 -37 -36 -4 -40 -8 -43
-35 -5 -41 8 -175 17 -175 4 0 11 14 16 32 6 17 16 33 23 36 9 3 12 -32 12
-153 0 -228 29 -543 53 -573 5 -7 12 -33 14 -59 7 -78 83 -233 151 -305 14
-15 24 -29 21 -31 -19 -15 -107 -60 -166 -85 -80 -34 -265 -82 -413 -108 -157
-28 -584 -22 -490 6 l25 8 -25 1 c-14 1 -33 8 -44 16 -17 13 -17 14 10 20 54
11 79 20 79 30 0 6 4 15 7 21 5 7 -4 14 -25 19 -27 6 -29 8 -12 14 19 8 19 8
0 19 -20 11 -20 11 0 18 19 8 18 8 -5 15 l-25 6 30 12 c17 6 44 18 60 27 l30
15 -37 -7 c-27 -4 -38 -3 -38 6 0 19 195 205 229 220 17 7 28 16 25 21 -3 5 1
9 9 9 17 0 70 50 123 117 21 26 62 73 91 103 79 84 124 147 144 203 24 64 24
67 -2 67 -11 0 -17 -5 -14 -10 3 -5 -1 -10 -9 -10 -14 0 -20 -12 -17 -32 0 -5
-6 -8 -14 -8 -8 0 -15 -5 -15 -10 0 -23 -83 -100 -107 -100 -13 0 -22 -4 -19
-9 3 -5 -1 -14 -9 -21 -8 -7 -15 -9 -15 -4 0 4 -15 -6 -32 -23 -18 -16 -52
-41 -75 -53 -24 -13 -43 -27 -43 -32 0 -4 -9 -8 -20 -8 -11 0 -20 -7 -20 -15
0 -8 -9 -15 -20 -15 -11 0 -20 -7 -20 -15 0 -9 -12 -18 -30 -21 -16 -4 -27
-10 -24 -15 3 -5 -11 -9 -32 -9 -29 0 -34 -3 -25 -13 8 -11 5 -16 -15 -25 -30
-14 -54 -15 -54 -2 0 5 -12 -2 -26 -15 -14 -13 -32 -21 -40 -18 -8 3 -14 0
-14 -7 0 -8 -11 -11 -30 -8 -16 3 -30 2 -30 -2 0 -3 -9 -6 -20 -7 -11 -1 -20
4 -20 10 0 8 -3 7 -9 -2 -5 -8 -16 -11 -25 -8 -8 3 -18 2 -21 -3 -8 -13 -65
-13 -65 0 0 6 -16 10 -36 10 -19 0 -33 4 -30 9 8 12 -29 21 -45 10 -7 -4 -21
-3 -30 2 -10 5 -27 9 -38 9 -22 0 -61 32 -61 50 0 6 -3 10 -8 10 -4 0 -20 11
-35 25 -20 20 -27 35 -26 63 0 20 3 31 6 25 8 -21 22 -15 16 7 -3 13 0 20 8
20 8 0 25 9 39 20 14 11 35 20 47 20 12 0 25 5 28 10 3 6 15 10 27 10 17 0 30
19 30 47 1 15 36 33 52 27 18 -7 23 21 5 32 -8 4 -8 9 0 17 6 6 11 14 11 18 0
9 -68 23 -97 20 -18 -2 -21 1 -16 15 4 12 3 15 -5 10 -7 -4 -12 -3 -12 3 0 5
8 12 18 14 12 3 11 5 -6 6 -18 1 -23 -4 -22 -21 4 -46 1 -49 -37 -46 -28 2
-41 9 -50 28 -9 19 -19 24 -39 22 -18 -3 -25 0 -22 9 2 7 45 23 94 34 49 12
112 29 139 38 28 9 95 26 150 36 55 11 114 26 130 35 17 9 37 16 46 16 19 0
42 24 32 33 -13 14 -61 6 -87 -14 -22 -17 -40 -21 -111 -20 -47 0 -85 -4 -85
-9 0 -12 -82 -18 -107 -7 -16 7 -35 6 -65 -5 -46 -15 -164 -16 -180 0 -12 12
88 122 111 122 9 0 26 -7 37 -15 24 -19 31 -18 38 1 3 8 2 12 -3 9 -16 -9 -22
12 -12 38 7 18 7 27 -2 31 -7 2 -5 5 4 5 9 1 22 8 29 15 6 8 34 22 61 31 27 9
52 21 55 27 22 36 -122 52 -193 23 -47 -20 -79 -18 -128 5 -22 11 -47 19 -56
20 -33 0 -45 32 -43 110 1 41 7 88 13 103 6 16 11 68 11 116 0 49 7 127 15
175 10 59 12 93 5 105 -5 10 -6 22 -2 26 4 4 -8 5 -25 2 -18 -4 -33 -3 -33 2
0 5 -12 12 -27 16 -33 8 -63 33 -63 51 0 7 -9 16 -20 19 -11 3 -20 10 -20 14
0 4 -12 13 -26 20 -15 6 -24 14 -21 17 7 7 -35 50 -45 47 -5 -2 -8 4 -8 13 0
8 -4 12 -10 9 -6 -4 -10 8 -11 27 -1 18 -2 40 -3 48 -1 8 2 20 5 25 13 20 20
73 10 79 -5 4 -8 19 -6 35 4 28 -9 42 -40 45 -5 1 -9 9 -9 19 1 9 -2 17 -6 17
-4 0 -10 17 -13 38 -4 37 17 102 34 102 5 0 8 3 8 8 -3 14 25 72 38 76 8 3 10
-1 6 -12 -5 -15 -3 -15 13 2 13 12 15 20 7 23 -9 3 21 66 55 113 2 2 7 -2 11
-9 7 -11 11 -9 20 7 14 25 14 43 1 22 -8 -13 -10 -13 -10 -1 0 17 41 81 53 81
11 0 8 -14 -9 -38 -8 -12 -11 -22 -5 -22 5 0 12 6 15 13 5 10 7 10 12 0 3 -7
15 -13 27 -13 17 0 19 2 8 9 -15 10 -8 41 8 41 6 0 8 -7 5 -15 -5 -11 -2 -14
12 -9 11 4 24 11 31 16 7 5 13 4 15 -3 2 -7 15 -2 32 15 18 16 23 26 15 26
-10 1 -9 5 4 14 18 14 18 14 0 19 -22 5 30 30 110 52 35 10 41 14 19 12 -20
-2 -31 0 -29 7 4 14 107 21 107 8 0 -5 -9 -12 -21 -15 -12 -3 -18 -10 -14 -16
3 -6 1 -11 -5 -11 -6 0 -21 -9 -33 -21 -12 -11 -37 -27 -54 -36 -18 -8 -33
-19 -33 -24 0 -12 17 -12 24 0 13 21 90 52 115 46 16 -3 40 1 60 11 l34 17
-29 13 c-27 13 -25 13 33 10 35 -3 65 0 68 5 4 5 2 9 -4 9 -8 0 -8 22 -2 59 1
2 8 -2 16 -9 9 -7 13 -21 10 -31 -5 -13 -1 -19 10 -19 9 0 19 9 22 21 5 16 11
19 34 14 24 -6 28 -4 23 10 -4 10 -14 15 -25 12 -11 -3 -19 -1 -19 3 0 7 12
13 41 19 3 0 9 -3 15 -9z m-466 -6 c0 -4 -8 -13 -17 -20 -17 -12 -17 -12 2
-11 11 1 23 5 26 10 8 10 122 20 115 9 -3 -5 -21 -9 -41 -10 -20 -1 -43 -6
-53 -11 -14 -8 -10 -11 18 -11 l35 -1 -28 -24 c-16 -14 -33 -23 -38 -19 -6 3
-20 -2 -31 -13 l-21 -18 16 32 c14 26 14 32 3 36 -8 3 -24 -5 -37 -19 -12 -13
-27 -24 -33 -24 -5 0 3 14 20 31 23 24 25 29 9 24 -15 -5 -12 0 10 19 30 25
45 32 45 20z m-191 -21 c-6 -15 -74 -34 -124 -34 -28 1 -66 -4 -84 -9 -19 -5
-39 -7 -44 -3 -14 9 19 21 63 23 l35 2 -30 8 c-29 7 -29 8 10 9 74 4 160 12
164 17 6 6 13 -3 10 -13z m-294 -3 c-3 -5 -16 -10 -28 -10 -18 0 -19 2 -7 10
20 13 43 13 35 0z m1402 4 c-3 -3 -12 -4 -19 -1 -8 3 -5 6 6 6 11 1 17 -2 13
-5z m-195 -26 c-6 -6 -16 -7 -22 -3 -9 6 -9 9 1 16 17 10 34 0 21 -13z m-1209
-5 c-7 -2 -19 -2 -25 0 -7 3 -2 5 12 5 14 0 19 -2 13 -5z m797 -3 c0 -5 -4
-10 -10 -10 -5 0 -10 5 -10 10 0 6 5 10 10 10 6 0 10 -4 10 -10z m-620 -39 c0
-5 -7 -12 -16 -15 -22 -8 -90 4 -75 14 17 10 91 11 91 1z m990 -26 c-7 -8 -16
-15 -21 -15 -5 0 -6 7 -3 15 4 8 13 15 21 15 13 0 13 -3 3 -15z m-720 -5 c0
-5 -5 -10 -11 -10 -5 0 -7 5 -4 10 3 6 8 10 11 10 2 0 4 -4 4 -10z m-483 -26
l28 -25 -32 15 c-33 16 -52 36 -34 36 5 0 23 -11 38 -26z m245 4 c-7 -7 -12
-8 -12 -2 0 14 12 26 19 19 2 -3 -1 -11 -7 -17z m54 -23 c-3 -8 -1 -15 5 -15
13 0 -1 -25 -36 -65 -19 -22 -25 -25 -20 -10 6 18 4 18 -18 -3 -35 -33 -40
-27 -12 16 46 70 98 120 81 77z m-69 -14 c-1 -11 -6 -17 -14 -14 -10 4 -11 9
-2 19 15 19 18 18 16 -5z m-23 -36 c-7 -16 -24 -21 -24 -6 0 8 7 13 27 20 1 1
0 -6 -3 -14z m1490 -244 c-6 -6 -24 19 -24 34 1 6 7 1 15 -9 8 -11 12 -22 9
-25z m226 -121 c0 -5 -2 -10 -4 -10 -3 0 -8 5 -11 10 -3 6 -1 10 4 10 6 0 11
-4 11 -10z m71 -7 c1 -10 0 -22 -1 -28 -2 -5 -3 -21 -4 -35 -1 -14 -5 -23 -11
-20 -5 3 -9 9 -7 13 1 4 -2 17 -8 27 -7 14 -7 20 0 20 5 0 10 9 10 20 0 25 20
27 21 3z m34 -3 c3 -5 1 -10 -4 -10 -6 0 -11 5 -11 10 0 6 2 10 4 10 3 0 8 -4
11 -10z m-95 -24 c0 -2 -7 -6 -15 -10 -8 -3 -15 -1 -15 4 0 6 7 10 15 10 8 0
15 -2 15 -4z m41 -84 c-6 -2 -11 -8 -11 -13 0 -14 28 -11 33 4 3 6 6 0 6 -14
l1 -27 -34 16 c-21 9 -37 25 -41 39 -9 38 4 47 32 21 13 -12 19 -24 14 -26z
m104 -10 l7 -34 -26 17 c-26 17 -36 45 -16 45 6 0 10 8 10 18 1 14 2 15 9 2 5
-8 12 -30 16 -48z m102 -58 c8 -22 -15 -43 -27 -24 -5 8 -10 21 -10 28 0 17
30 15 37 -4z m-199 -245 c-3 -8 -7 -3 -11 10 -4 17 -3 21 5 13 5 -5 8 -16 6
-23z m-1748 -79 c0 -5 -4 -10 -10 -10 -5 0 -10 5 -10 10 0 6 5 10 10 10 6 0
10 -4 10 -10z m-1092 -52 c-4 -27 -18 -32 -42 -15 -24 17 -13 37 20 37 20 0
25 -4 22 -22z m1152 -504 c-10 -33 -21 -85 -25 -115 -12 -98 -25 -129 -53
-129 -19 0 -23 4 -19 20 3 13 1 18 -6 13 -6 -4 -8 0 -4 10 4 11 1 17 -8 17 -8
0 -14 3 -14 8 1 4 0 9 -1 12 -7 14 -6 169 1 164 5 -3 9 4 9 15 0 26 79 53 80
27 1 -6 8 1 16 17 12 22 17 25 28 15 11 -11 10 -23 -4 -74z m2590 -384 c0 -5
-8 -10 -17 -10 -15 0 -16 2 -3 10 19 12 20 12 20 0z m-233 -26 c-3 -3 -12 -4
-19 -1 -8 3 -5 6 6 6 11 1 17 -2 13 -5z m-247 -14 c0 -5 -4 -10 -10 -10 -5 0
-10 5 -10 10 0 6 5 10 10 10 6 0 10 -4 10 -10z m30 -14 c0 -3 -4 -8 -10 -11
-5 -3 -10 -1 -10 4 0 6 5 11 10 11 6 0 10 -2 10 -4z m498 -96 c7 -11 21 -20
31 -20 30 0 51 -11 51 -26 0 -8 -9 -14 -19 -14 -12 0 -25 -12 -33 -30 -7 -16
-15 -30 -18 -30 -3 0 -11 14 -19 32 -23 52 -46 68 -96 68 -31 0 -45 4 -45 13
0 23 11 27 74 27 50 0 63 -4 74 -20z m-330 -12 c23 -23 14 -41 -18 -35 -16 4
-32 2 -35 -3 -10 -17 -31 -11 -61 16 l-29 26 25 -6 c14 -3 32 -1 40 4 21 14
64 12 78 -2z m175 -52 c21 -16 22 -46 2 -46 -13 0 -35 36 -35 56 0 8 15 3 33
-10z m-363 -11 c0 4 5 3 11 -1 8 -4 7 -9 -2 -15 -13 -8 7 -15 60 -21 39 -5 35
-23 -7 -40 -33 -13 -40 -21 -50 -59 -7 -27 -8 -47 -2 -53 13 -13 50 22 50 47
0 17 5 19 33 13 17 -3 40 -17 50 -31 14 -19 24 -23 46 -19 26 6 29 3 35 -30
12 -63 -24 -80 -48 -22 -11 27 -21 35 -51 40 -31 6 -40 4 -52 -13 -8 -12 -25
-21 -38 -21 -13 0 -37 -11 -53 -25 -37 -31 -42 -31 -42 0 0 23 -2 24 -26 13
-28 -13 -44 -1 -44 35 0 10 -7 34 -15 54 -8 20 -14 38 -11 40 5 6 69 -30 83
-47 7 -8 13 -23 13 -33 0 -30 20 -8 20 22 0 21 -6 30 -22 34 l-22 6 23 25 c25
26 15 42 -19 31 -11 -4 -20 -2 -20 4 0 6 -8 11 -18 11 -10 0 -27 6 -37 14 -18
13 -17 14 14 30 18 10 36 14 39 10 4 -4 1 -9 -5 -11 -28 -10 -11 -24 25 -21
30 2 38 7 40 25 3 19 6 21 23 13 10 -6 19 -8 19 -5z m243 -9 c3 -7 2 -18 -3
-25 -10 -16 -50 3 -50 24 0 26 43 27 53 1z m-438 3 c12 -18 -3 -22 -20 -5 -14
14 -14 16 -1 16 8 0 18 -5 21 -11z m645 -17 c0 -9 -9 -23 -20 -30 -18 -11 -20
-10 -20 18 0 23 4 30 20 30 12 0 20 -7 20 -18z m-110 -37 c0 -28 -24 -34 -34
-9 -8 20 1 34 20 34 8 0 14 -10 14 -25z m-605 -62 c9 -19 14 -37 11 -41 -10
-9 -56 40 -56 59 0 10 -4 21 -10 24 -5 3 -10 13 -10 22 0 24 44 -20 65 -64z
m935 47 c0 -5 -4 -10 -10 -10 -5 0 -10 5 -10 10 0 6 5 10 10 10 6 0 10 -4 10
-10z m-880 -14 c0 -11 -19 -15 -25 -6 -3 5 1 10 9 10 9 0 16 -2 16 -4z m387
-21 c-4 -8 -11 -15 -17 -15 -14 0 -13 27 3 33 16 6 21 1 14 -18z m213 -11 c11
-12 10 -18 -3 -32 -21 -21 -42 -3 -32 27 8 25 18 27 35 5z m-90 -39 c18 -11
10 -25 -13 -25 -13 0 -32 9 -41 19 -18 19 -17 20 13 16 17 -2 36 -7 41 -10z
m210 -4 c0 -5 -7 -11 -15 -15 -9 -3 -15 0 -15 9 0 8 7 15 15 15 8 0 15 -4 15
-9z m200 -41 c0 -37 -1 -38 -42 -46 -24 -4 -52 -9 -63 -11 -102 -18 -147 -24
-151 -21 -2 2 -5 15 -6 27 -3 20 4 25 45 37 27 9 47 21 47 28 0 20 15 24 98
24 l72 1 0 -39z m-992 -12 c2 -20 9 -28 23 -28 22 0 37 -26 23 -40 -5 -5 -21
-12 -36 -15 -23 -6 -29 -3 -39 19 -9 19 -9 29 0 40 10 11 8 17 -8 28 -24 17
-16 30 14 26 13 -2 21 -12 23 -30z m702 -37 c0 -31 -4 -41 -20 -46 -11 -3 -24
-3 -30 0 -17 10 -12 63 8 74 32 19 42 13 42 -28z m-322 -24 c5 -23 -41 -49
-72 -41 -33 8 -33 14 2 52 24 27 29 29 47 18 11 -8 21 -20 23 -29z m224 -26
c-7 -4 -8 -12 -2 -21 7 -10 10 -11 10 -2 0 7 14 12 35 12 28 0 37 -5 45 -24
12 -33 40 -39 91 -22 44 15 58 10 59 -20 0 -31 -122 -41 -155 -14 -12 10 -19
10 -27 2 -14 -14 -32 -16 -24 -4 7 11 -22 52 -36 52 -5 0 -7 -7 -4 -16 3 -8 1
-24 -4 -35 -8 -15 -7 -19 3 -19 8 0 20 -6 26 -14 16 -19 -10 -41 -27 -24 -19
19 -35 -5 -35 -52 0 -44 -6 -53 -32 -44 -12 5 -14 14 -10 35 5 22 3 29 -9 29
-38 0 -28 43 15 66 20 10 29 22 29 39 0 13 5 27 10 30 6 3 10 13 10 22 0 22
33 59 38 43 3 -7 0 -15 -6 -19z m-484 -6 c16 -34 59 -50 89 -34 20 11 26 10
40 -4 23 -22 7 -37 -40 -39 -39 -1 -47 -11 -21 -26 36 -20 -81 -41 -129 -23
-17 7 -30 6 -44 -4 -12 -9 -24 -10 -34 -4 -11 7 -9 9 9 9 20 0 22 3 16 23 -4
12 -8 33 -8 47 -1 22 4 25 41 28 34 3 42 7 47 28 8 31 20 31 34 -1z m342 5 c0
-5 -7 -10 -15 -10 -8 0 -15 5 -15 10 0 6 7 10 15 10 8 0 15 -4 15 -10z m-2125
-60 c3 -6 -1 -7 -9 -4 -18 7 -21 14 -7 14 6 0 13 -4 16 -10z m2000 0 c3 -5 1
-10 -4 -10 -6 0 -11 5 -11 10 0 6 2 10 4 10 3 0 8 -4 11 -10z m561 -55 c7 -27
-20 -70 -37 -59 -10 6 -12 68 -2 77 14 15 33 6 39 -18z m-502 -16 c-7 -13 -31
-11 -40 2 -9 16 18 30 33 17 7 -6 10 -14 7 -19z m86 11 c0 -5 -4 -10 -10 -10
-5 0 -10 5 -10 10 0 6 5 10 10 10 6 0 10 -4 10 -10z m-2434 -35 c-11 -8 -29
-15 -40 -15 -17 1 -15 4 9 15 40 18 55 18 31 0z m2909 5 c9 -15 -14 -40 -37
-40 -15 0 -18 -5 -13 -19 4 -13 -1 -27 -16 -42 -19 -19 -23 -20 -31 -5 -12 21
-74 22 -82 1 -7 -19 -56 -20 -56 -1 0 8 15 17 35 20 19 4 35 11 35 16 0 6 13
10 29 10 40 0 81 17 81 33 0 29 41 49 55 27z m-620 -20 c12 -13 25 -18 38 -14
14 4 18 2 15 -7 -3 -8 -21 -16 -41 -19 -23 -3 -50 -17 -71 -37 -19 -18 -39
-33 -45 -33 -17 0 -13 27 4 34 8 3 15 13 15 22 0 15 48 74 61 74 3 0 14 -9 24
-20z m393 -18 c2 -13 -5 -25 -20 -33 -13 -7 -29 -21 -36 -31 -13 -18 -15 -18
-38 5 -28 28 -23 57 10 57 11 0 30 7 41 15 24 19 39 15 43 -13z m-698 -2 c12
-23 10 -24 -24 -9 -14 7 -23 16 -20 20 9 16 33 10 44 -11z m110 11 c0 -15 -16
-22 -35 -15 -13 5 -14 8 -3 15 18 12 38 11 38 0z m344 -18 c6 -15 -8 -32 -26
-33 -12 0 -20 20 -14 35 7 20 32 19 40 -2z m-274 -27 c0 -20 -26 -40 -35 -26
-10 16 2 40 20 40 8 0 15 -6 15 -14z m244 -37 c-3 -5 -10 -7 -15 -3 -5 3 -7
10 -3 15 3 5 10 7 15 3 5 -3 7 -10 3 -15z m251 -39 c3 -5 25 -7 50 -3 36 5 45
3 45 -9 0 -9 25 -35 55 -58 38 -29 54 -48 50 -58 -3 -9 0 -19 7 -24 8 -5 2 -8
-18 -8 -35 0 -57 -20 -49 -42 3 -8 -6 -24 -20 -36 -13 -12 -22 -28 -19 -35 3
-8 -2 -19 -10 -26 -13 -11 -21 -9 -45 8 -33 24 -56 19 -84 -16 -19 -24 -47
-31 -47 -12 0 7 -11 9 -29 6 -26 -6 -29 -3 -34 26 -3 20 1 38 10 49 14 15 13
19 -2 34 -17 17 -16 19 5 36 17 14 20 21 11 32 -9 10 -8 16 4 26 24 20 47 5
39 -26 -6 -25 -5 -26 25 -19 34 7 61 -7 61 -31 0 -9 -12 -14 -33 -14 -40 0
-62 -17 -46 -37 8 -9 16 -10 32 -2 11 7 39 9 63 5 24 -3 50 -3 59 0 17 7 21
44 5 44 -5 0 -10 5 -10 11 0 6 7 8 16 5 13 -5 15 -1 12 24 -4 23 0 34 14 41
24 13 23 32 -2 24 -11 -4 -32 1 -50 11 -23 14 -32 16 -42 6 -18 -18 -38 -14
-38 7 0 10 -7 24 -15 31 -12 10 -13 16 -4 26 13 16 25 18 34 4z m240 -10 c0
-16 -48 -44 -53 -30 -2 5 2 18 8 30 12 23 45 23 45 0z m-639 -16 c-4 -9 -9
-15 -11 -12 -3 3 -3 13 1 22 4 9 9 15 11 12 3 -3 3 -13 -1 -22z m94 -36 c0
-18 7 -36 18 -44 24 -18 32 -17 32 4 0 30 36 55 85 59 34 3 45 0 45 -11 0 -19
-21 -26 -44 -14 -16 9 -18 7 -13 -11 3 -12 0 -24 -8 -29 -7 -4 -15 -18 -17
-32 -1 -14 -10 -26 -18 -26 -8 -1 -21 -2 -27 -3 -7 0 -13 -6 -13 -12 0 -7 10
-9 25 -5 15 4 38 0 57 -10 31 -16 31 -17 12 -31 -10 -7 -29 -11 -41 -8 -13 3
-23 1 -23 -5 0 -5 7 -10 16 -10 10 0 15 -8 14 -22 -4 -43 0 -46 60 -53 58 -7
88 -24 75 -45 -9 -15 -61 -12 -75 5 -7 9 -29 15 -51 15 -32 0 -39 3 -39 20 0
14 -5 18 -16 13 -14 -5 -16 -1 -12 25 5 32 -11 49 -29 31 -15 -15 -41 0 -45
24 -2 15 -12 23 -33 27 -22 4 -26 8 -16 14 12 8 11 11 -4 23 -25 17 -9 34 42
42 24 4 38 12 38 21 0 22 -93 27 -101 6 -11 -29 -24 -17 -17 17 8 42 8 42 40
27 43 -20 51 -20 45 2 -5 20 15 41 30 32 4 -3 8 -19 8 -36z m-3799 -101 c-6
-15 -15 -27 -21 -27 -17 0 -11 42 8 56 21 16 26 5 13 -29z m4299 -47 c0 -5 -5
-10 -11 -10 -5 0 -7 5 -4 10 3 6 8 10 11 10 2 0 4 -4 4 -10z m80 0 c0 -5 -5
-10 -11 -10 -5 0 -7 5 -4 10 3 6 8 10 11 10 2 0 4 -4 4 -10z m-270 -150 c0
-13 7 -20 20 -20 25 0 26 -17 3 -42 -15 -16 -15 -21 -3 -28 8 -5 12 -12 8 -15
-8 -8 -59 55 -52 66 3 5 0 9 -5 9 -15 0 -14 23 1 38 18 18 28 15 28 -8z m-160
-20 c0 -5 -6 -10 -14 -10 -8 0 -18 5 -21 10 -3 6 3 10 14 10 12 0 21 -4 21
-10z m366 -65 c3 -14 13 -25 23 -25 9 0 23 -5 31 -10 13 -9 12 -13 -8 -30 -21
-17 -21 -19 -5 -29 14 -7 15 -13 7 -21 -9 -9 -19 -8 -41 4 -17 8 -39 13 -50
10 -12 -3 -24 -1 -27 5 -4 6 -1 11 6 11 9 1 7 5 -4 14 -16 12 -16 14 8 25 18
8 24 17 20 27 -6 17 9 44 25 44 5 0 11 -11 15 -25z m49 -5 c-5 -8 -11 -8 -17
-2 -6 6 -7 16 -3 22 5 8 11 8 17 2 6 -6 7 -16 3 -22z m-115 -4 c0 -3 -4 -8
-10 -11 -5 -3 -10 -1 -10 4 0 6 5 11 10 11 6 0 10 -2 10 -4z"/>
<path d="M1930 3669 c0 -5 5 -7 10 -4 6 3 10 8 10 11 0 2 -4 4 -10 4 -5 0 -10
-5 -10 -11z"/>
<path d="M2900 3509 c0 -5 5 -7 10 -4 6 3 10 8 10 11 0 2 -4 4 -10 4 -5 0 -10
-5 -10 -11z"/>
<path d="M2080 3465 c-14 -8 -19 -14 -10 -14 8 0 24 6 34 14 25 19 9 19 -24 0z"/>
<path d="M1960 3370 c0 -5 5 -10 11 -10 5 0 7 5 4 10 -3 6 -8 10 -11 10 -2 0
-4 -4 -4 -10z"/>
<path d="M2060 3360 c-8 -5 -10 -10 -5 -10 6 0 17 5 25 10 8 5 11 10 5 10 -5
0 -17 -5 -25 -10z"/>
<path d="M1990 3330 c-12 -12 -18 -26 -14 -31 4 -8 1 -8 -13 0 -11 6 -23 7
-27 4 -3 -3 -6 -1 -6 5 0 8 -7 9 -25 2 -18 -7 -24 -6 -22 2 1 7 -5 13 -14 15
-15 4 -69 -64 -69 -87 0 -5 -4 -10 -10 -10 -5 0 -7 -6 -4 -13 2 -7 -4 -21 -15
-31 -23 -21 -18 -44 5 -25 12 10 13 9 8 -5 -4 -10 -12 -15 -19 -13 -6 3 -24
-8 -39 -24 -15 -16 -23 -29 -17 -29 31 0 88 35 141 86 33 32 63 54 66 51 4 -4
1 -13 -6 -22 -7 -9 -9 -19 -5 -23 4 -4 10 -2 12 4 2 7 28 44 58 85 30 40 55
74 55 76 0 10 -23 0 -40 -17z"/>
<path d="M3150 3110 c0 -5 5 -10 11 -10 5 0 7 5 4 10 -3 6 -8 10 -11 10 -2 0
-4 -4 -4 -10z"/>
<path d="M3190 3092 c0 -12 19 -26 26 -19 2 2 -2 10 -11 17 -9 8 -15 8 -15 2z"/>
<path d="M3378 2875 c2 -14 8 -25 12 -25 4 0 8 11 8 25 0 14 -6 25 -13 25 -8
0 -10 -9 -7 -25z"/>
<path d="M3340 2797 c0 -10 -8 -29 -17 -44 -18 -27 -27 -63 -17 -63 28 0 65
93 45 113 -8 8 -11 6 -11 -6z"/>
<path d="M3296 2653 c-11 -11 -6 -23 9 -23 8 0 15 4 15 9 0 13 -16 22 -24 14z"/>
<path d="M2385 2637 c-44 -5 -88 -13 -97 -18 -13 -6 -18 -5 -18 3 -1 7 -12 0
-25 -17 -24 -28 -24 -29 -44 -10 -14 12 -21 14 -21 5 0 -7 -7 -10 -15 -6 -14
5 -20 -5 -16 -27 1 -4 -8 -3 -19 3 -17 9 -21 8 -27 -7 -3 -10 -17 -30 -30 -45
-30 -31 -27 -60 7 -69 14 -4 18 -8 10 -9 -20 -2 49 -28 77 -29 12 -1 38 -10
57 -22 20 -11 50 -23 68 -25 18 -3 45 -11 61 -17 27 -12 36 -27 16 -27 -6 0
-9 -7 -7 -16 4 -24 81 -44 168 -44 66 1 73 2 57 15 -11 7 -38 17 -60 20 -23 4
-47 12 -54 17 -7 5 -22 7 -35 3 -19 -6 -21 -5 -10 6 7 8 35 13 67 14 31 0 54
4 53 10 -1 6 11 12 27 15 16 3 28 9 26 14 -6 18 26 27 94 25 39 -1 86 0 105 1
l35 2 -30 8 c-16 4 -22 8 -12 9 27 2 20 15 -15 31 l-33 15 30 3 c17 2 35 8 40
13 7 7 5 8 -6 4 -10 -4 -16 0 -16 10 0 10 10 15 31 15 22 0 27 3 17 9 -8 5
-29 7 -48 4 -18 -3 -39 -1 -47 6 -7 6 -21 9 -30 5 -9 -3 -16 -1 -16 4 0 6 -10
12 -22 15 -25 4 -15 11 35 22 16 3 27 11 24 18 -4 12 -9 12 -62 2 -21 -5 -26
-4 -16 3 11 8 9 11 -10 17 -13 5 -37 8 -53 7 -17 0 -35 2 -40 6 -6 3 -24 5
-39 3 -15 -1 -33 1 -40 6 -7 5 -48 5 -92 0z m250 -97 c13 -6 15 -9 5 -9 -8 0
-22 4 -30 9 -18 12 -2 12 25 0z m45 -85 c46 -18 13 -18 -65 0 l-60 13 45 0
c25 0 61 -6 80 -13z"/>
<path d="M3331 2614 c0 -11 3 -14 6 -6 3 7 2 16 -1 19 -3 4 -6 -2 -5 -13z"/>
<path d="M3390 2580 c0 -11 2 -20 4 -20 2 0 6 9 9 20 3 11 1 20 -4 20 -5 0 -9
-9 -9 -20z"/>
<path d="M3290 2580 c19 -13 30 -13 30 0 0 6 -10 10 -22 10 -19 0 -20 -2 -8
-10z"/>
<path d="M3444 2545 c4 -14 2 -25 -3 -25 -11 0 -12 -72 -2 -89 4 -6 12 4 20
24 9 26 9 44 1 75 -6 22 -13 40 -16 40 -4 0 -3 -11 0 -25z"/>
<path d="M3635 2556 c-37 -17 -80 -62 -94 -98 -15 -39 2 -36 46 7 20 20 44 34
52 33 9 -2 21 -24 29 -51 15 -55 27 -60 36 -16 11 58 7 105 -12 122 -22 20
-19 20 -57 3z"/>
<path d="M3360 2464 c0 -8 5 -12 10 -9 6 3 10 10 10 16 0 5 -4 9 -10 9 -5 0
-10 -7 -10 -16z"/>
<path d="M3506 2354 c-14 -36 -5 -54 33 -74 43 -21 71 -54 71 -82 0 -36 20
-17 35 34 19 66 19 81 -2 106 -24 27 -128 40 -137 16z"/>
<path d="M2500 1912 c0 -21 70 -104 116 -138 42 -31 93 -89 159 -179 14 -19
14 -19 15 12 0 75 -148 260 -239 296 -47 19 -51 20 -51 9z"/>
<path d="M2220 1589 c0 -5 5 -7 10 -4 6 3 10 8 10 11 0 2 -4 4 -10 4 -5 0 -10
-5 -10 -11z"/>
<path d="M2750 960 c-8 -5 -12 -12 -9 -15 4 -3 12 1 19 10 14 17 11 19 -10 5z"/>
<path d="M2730 570 c-13 -8 -12 -10 3 -10 9 0 17 5 17 10 0 12 -1 12 -20 0z"/>
<path d="M2045 3540 c-3 -5 -1 -10 4 -10 6 0 11 5 11 10 0 6 -2 10 -4 10 -3 0
-8 -4 -11 -10z"/>
<path d="M4500 1120 c-8 -5 -10 -10 -5 -10 6 0 17 5 25 10 8 5 11 10 5 10 -5
0 -17 -5 -25 -10z"/>
<path d="M4500 600 c0 -5 5 -10 11 -10 5 0 7 5 4 10 -3 6 -8 10 -11 10 -2 0
-4 -4 -4 -10z"/>
</g>
</svg>
